<?xml version="1.0" standalone="no"?>
<!DOCTYPE svg PUBLIC "-//W3C//DTD SVG 20010904//EN"
 "http://www.w3.org/TR/2001/REC-SVG-20010904/DTD/svg10.dtd">
<svg version="1.0" xmlns="http://www.w3.org/2000/svg"
 width="379.000000pt" height="252.000000pt" viewBox="0 0 379.000000 252.000000"
 preserveAspectRatio="xMidYMid meet">

<g transform="translate(0.000000,252.000000) scale(0.100000,-0.100000)"
fill="#000000" stroke="none">
<path d="M1864 2459 c-6 -8 -30 -49 -53 -91 l-42 -77 11 -61 11 -60 -36 -46
c-41 -54 -42 -60 -14 -94 11 -14 33 -44 50 -68 l30 -43 -30 -28 c-17 -16 -31
-33 -31 -39 0 -5 25 -20 55 -32 30 -12 55 -27 55 -32 0 -5 -7 -23 -16 -40 -15
-30 -15 -31 18 -58 l33 -28 -21 -24 c-32 -36 -35 -45 -23 -72 10 -21 9 -29 -4
-44 -24 -26 -21 -30 19 -28 34 1 35 0 30 -27 -5 -23 1 -38 24 -67 17 -21 30
-44 30 -52 0 -13 -30 -44 -88 -92 l-22 -19 6 34 c9 44 15 50 54 51 36 1 47 17
30 47 -13 25 -47 27 -78 5 -20 -14 -22 -23 -22 -117 0 -59 4 -96 9 -89 4 8 7
24 5 38 -3 27 8 31 26 9 11 -13 7 -23 -20 -58 -18 -23 -37 -47 -41 -52 -5 -7
10 -25 36 -45 43 -34 44 -37 45 -92 0 -41 -9 -79 -30 -133 -16 -42 -30 -81
-30 -88 0 -7 25 -37 55 -67 30 -30 55 -57 55 -61 0 -4 -29 -19 -65 -34 -36
-16 -65 -31 -65 -34 0 -3 13 -51 30 -105 l29 -99 -30 -43 c-16 -23 -29 -46
-29 -51 0 -5 14 -26 32 -47 22 -27 34 -56 42 -100 l11 -61 24 58 23 57 -40 52
-41 53 36 43 36 44 -26 82 c-15 45 -27 85 -27 88 0 3 28 22 63 43 34 21 64 40
66 41 2 2 -22 31 -53 66 -31 35 -56 68 -56 74 0 6 7 28 15 47 8 20 17 69 19
109 l3 72 47 30 c25 17 46 33 46 36 0 3 -21 17 -48 32 -91 51 -91 52 -47 80
l38 24 -2 84 -2 85 40 39 c31 30 39 45 35 62 -3 12 -1 31 5 42 8 16 6 21 -15
31 -21 9 -23 14 -14 31 8 14 8 26 -1 41 -9 18 -6 26 22 55 l33 34 -27 28 -26
27 21 34 21 33 -47 42 -47 41 15 72 16 73 -40 61 -40 62 60 115 c33 63 59 116
57 118 -1 2 -29 -4 -60 -12 -58 -15 -76 -13 -78 9 0 7 -8 29 -18 51 -13 30
-19 35 -27 25z"/>
<path d="M1617 2223 c-4 -3 -7 -17 -7 -29 0 -21 -25 -44 -47 -44 -4 0 -26 16
-47 35 -22 19 -44 35 -48 35 -5 0 -6 -28 -2 -61 l7 -62 -34 6 c-19 3 -49 9
-67 13 l-33 6 16 -38 c35 -80 28 -104 -31 -104 -46 0 -50 -14 -11 -44 l34 -26
-29 -56 c-15 -31 -28 -71 -28 -89 0 -27 -19 -92 -45 -157 -6 -15 -3 -17 23
-12 l29 6 6 -79 c3 -43 1 -97 -5 -120 -11 -46 -3 -73 67 -228 17 -38 40 -99
49 -134 30 -107 51 -143 143 -237 119 -124 137 -134 241 -134 45 0 82 3 82 7
0 4 -14 21 -31 39 l-31 32 21 47 c12 26 21 51 21 56 0 5 -27 9 -61 9 -60 0
-61 -1 -55 -24 4 -18 0 -28 -19 -40 -32 -21 -51 -12 -99 47 -31 38 -43 68 -61
157 -3 14 -22 37 -45 53 -22 16 -46 41 -54 55 -7 15 -19 86 -26 159 -12 119
-11 150 6 310 l19 178 100 -2 c91 -1 279 18 291 30 3 3 -20 16 -50 30 -31 14
-56 32 -56 40 0 7 13 26 30 42 l29 28 -46 61 c-26 34 -50 66 -55 72 -5 7 7 32
32 65 22 30 39 60 38 68 -4 22 -144 52 -161 34z m-240 -960 c-3 -2 -12 15 -22
39 -28 69 -27 78 0 19 14 -29 24 -55 22 -58z"/>
<path d="M2016 2013 c-14 -14 -3 -21 57 -32 175 -34 279 -137 327 -326 10 -40
22 -115 25 -166 l7 -94 -31 -39 c-31 -38 -31 -38 -31 -12 0 40 -27 85 -55 92
-24 6 -79 -8 -168 -42 -48 -19 -49 -19 -63 1 -14 19 -15 18 -51 -17 -34 -34
-36 -41 -41 -112 -5 -74 -1 -84 26 -68 8 6 27 -6 55 -34 51 -50 107 -69 183
-59 74 9 124 67 124 145 0 16 9 44 21 62 l21 33 -6 -93 c-7 -119 -32 -291 -52
-362 -16 -57 -88 -182 -122 -214 -20 -17 -20 -16 -15 86 l5 103 -41 80 c-23
44 -52 95 -66 114 l-25 34 0 -31 c0 -21 -8 -36 -27 -51 -22 -16 -24 -20 -10
-21 9 0 26 9 37 20 19 19 19 19 49 -17 17 -20 29 -38 28 -40 -2 -1 -23 5 -47
13 -26 9 -63 14 -86 11 -39 -4 -40 -3 -24 13 9 9 25 20 36 24 14 6 15 10 6 13
-8 3 -33 -8 -55 -25 -41 -29 -42 -32 -45 -93 -1 -36 -12 -87 -24 -116 l-21
-51 61 -68 62 -68 -53 -32 c-28 -18 -61 -39 -72 -47 -19 -14 -18 -15 25 -22
28 -4 73 -1 120 9 71 15 77 19 143 83 120 119 186 236 204 360 4 28 11 43 23
46 25 6 50 48 57 93 3 22 16 66 29 100 27 71 39 156 26 199 -10 36 -44 45 -72
20 -17 -16 -18 -13 -19 65 -1 109 -24 211 -66 295 -41 84 -75 123 -145 170
-62 42 -206 85 -224 68z m504 -671 c0 -23 -13 -84 -29 -135 -16 -50 -34 -111
-40 -134 -17 -64 -34 -54 -26 15 4 31 11 75 16 97 l8 40 -2 -43 c-2 -38 -1
-41 11 -25 9 13 11 33 7 69 -4 36 -2 63 9 88 16 39 6 51 -12 14 l-11 -23 0 24
c-1 31 49 87 61 69 4 -7 8 -32 8 -56z m-205 -6 c41 -17 53 -60 36 -124 -16
-56 -51 -82 -114 -82 -108 0 -178 47 -191 129 -3 23 -4 46 -2 50 3 4 21 5 41
3 33 -4 34 -5 18 -19 -19 -15 -16 -15 27 0 3 1 16 -9 29 -22 25 -25 23 -26
-34 -6 -11 3 -7 -1 9 -10 21 -13 40 -15 70 -11 23 4 47 8 54 8 8 1 9 5 3 11
-7 7 -19 6 -37 -2 -34 -15 -40 -9 -13 15 20 18 22 18 51 1 17 -10 33 -16 35
-13 10 10 -51 45 -90 52 l-42 7 40 12 c54 17 70 17 110 1z m-270 -476 c-11 -5
-29 -8 -40 -8 -16 0 -15 2 5 8 34 11 60 11 35 0z m62 4 c-3 -3 -12 -4 -19 -1
-8 3 -5 6 6 6 11 1 17 -2 13 -5z m57 -20 c35 -35 9 -122 -43 -143 -49 -21 -65
-12 -71 39 -5 43 -6 44 -49 55 -39 9 -42 12 -27 24 10 9 50 16 97 19 50 3 76
8 67 13 -8 6 -9 9 -1 9 6 0 19 -7 27 -16z"/>
<path d="M1515 1397 c-29 -9 -40 -18 -40 -32 0 -17 7 -20 50 -20 41 0 55 -5
77 -27 29 -30 25 -34 -17 -18 -34 13 -48 5 -35 -21 15 -26 79 -26 111 1 23 18
23 19 4 20 -19 1 -19 2 2 12 37 18 71 2 77 -35 21 -136 23 -138 27 -39 2 52 1
102 -3 112 -14 38 -182 69 -253 47z m125 -62 c0 -8 -4 -15 -10 -15 -5 0 -10 7
-10 15 0 8 5 15 10 15 6 0 10 -7 10 -15z"/>
<path d="M1730 1070 c0 -6 7 -13 15 -16 28 -11 15 -25 -50 -54 -39 -18 -65
-35 -65 -45 0 -18 -2 -18 90 1 46 9 93 13 122 9 47 -7 48 -6 48 19 0 34 -38
71 -68 67 -13 -1 -34 5 -47 13 -28 18 -45 20 -45 6z"/>
<path d="M2267 904 c3 -55 0 -118 -5 -141 -5 -24 -6 -41 -2 -38 17 10 32 121
27 183 -10 106 -24 103 -20 -4z"/>
<path d="M1721 941 c-25 -3 -46 -11 -48 -18 -3 -9 22 -11 104 -8 64 2 109 8
111 14 2 6 -5 11 -16 11 -10 0 -39 2 -63 4 -24 2 -64 1 -88 -3z"/>
<path d="M847 844 c7 -3 9 -13 6 -22 -6 -14 -5 -15 9 -2 16 15 7 31 -17 29 -5
0 -5 -3 2 -5z"/>
<path d="M476 753 c-6 -14 -5 -15 5 -6 7 7 10 15 7 18 -3 3 -9 -2 -12 -12z"/>
<path d="M1220 730 c0 -5 5 -10 10 -10 6 0 10 5 10 10 0 6 -4 10 -10 10 -5 0
-10 -4 -10 -10z"/>
<path d="M385 691 c-3 -5 -2 -12 3 -15 5 -3 9 1 9 9 0 17 -3 19 -12 6z"/>
<path d="M320 657 c0 -8 7 -20 15 -27 13 -11 19 -9 36 8 20 22 13 32 -8 11 -7
-7 -15 -5 -27 6 -13 13 -16 14 -16 2z"/>
<path d="M572 625 c-7 -8 -8 -15 -3 -15 5 0 16 -3 25 -6 12 -4 16 0 16 15 0
24 -19 27 -38 6z"/>
<path d="M655 609 c-20 -20 -20 -20 5 -11 13 5 26 14 28 20 6 18 -11 13 -33
-9z"/>
<path d="M567 539 c-17 -37 -7 -64 16 -40 10 11 9 14 -1 18 -10 4 -10 8 -1 19
6 7 9 19 7 25 -2 7 -11 -3 -21 -22z"/>
<path d="M360 349 c0 -5 5 -7 10 -4 6 3 10 8 10 11 0 2 -4 4 -10 4 -5 0 -10
-5 -10 -11z"/>
</g>
</svg>
